<?xml version="1.0" encoding="UTF-8" standalone="no"?>
<svg
   xmlns:dc="http://purl.org/dc/elements/1.1/"
   xmlns:cc="http://creativecommons.org/ns#"
   xmlns:rdf="http://www.w3.org/1999/02/22-rdf-syntax-ns#"
   xmlns:svg="http://www.w3.org/2000/svg"
   xmlns="http://www.w3.org/2000/svg"
   xmlns:sodipodi="http://sodipodi.sourceforge.net/DTD/sodipodi-0.dtd"
   xmlns:inkscape="http://www.inkscape.org/namespaces/inkscape"
   version="1.1"
   id="Ebene_1"
   x="0px"
   y="0px"
   width="129.29466"
   height="43.416248"
   viewBox="0 0 129.29467 43.416247"
   enable-background="new 0 0 270.378 53.9"
   xml:space="preserve"
   sodipodi:docname="dhbw-logo-small.svg"
   inkscape:version="0.92.5 (2060ec1f9f, 2020-04-08)"><metadata
   id="metadata201"><rdf:RDF><cc:Work
       rdf:about=""><dc:format>image/svg+xml</dc:format><dc:type
         rdf:resource="http://purl.org/dc/dcmitype/StillImage" /><dc:title></dc:title></cc:Work></rdf:RDF></metadata><defs
   id="defs199" /><sodipodi:namedview
   pagecolor="#ffffff"
   bordercolor="#666666"
   borderopacity="1"
   objecttolerance="10"
   gridtolerance="10"
   guidetolerance="10"
   inkscape:pageopacity="0"
   inkscape:pageshadow="2"
   inkscape:window-width="1920"
   inkscape:window-height="1016"
   id="namedview197"
   showgrid="false"
   inkscape:zoom="1.2833885"
   inkscape:cx="40.871933"
   inkscape:cy="13.53625"
   inkscape:window-x="1920"
   inkscape:window-y="1107"
   inkscape:window-maximized="1"
   inkscape:current-layer="g194"
   fit-margin-top="0"
   fit-margin-left="0"
   fit-margin-right="0"
   fit-margin-bottom="0" />
<g
   id="g194"
   transform="translate(-0.425,-0.18675)">
	
	<g
   id="g108">
		<g
   id="g106">
			<path
   d="m 24.318,30.791 9.028,-9.03 c 0.438,-0.439 0.798,-1.154 0.798,-1.593 v -8.837 h -9.826 c -0.44,0 -0.796,0.357 -0.796,0.797 v 18.663 c 0,0.44 0.356,0.44 0.796,0"
   id="path102"
   inkscape:connector-curvature="0"
   style="fill:#e2001a" />
			<rect
   x="23.521"
   y="11.331"
   width="10.624"
   height="19.790001"
   id="rect104"
   style="fill:none" />
		</g>
	</g>
	<g
   id="g116">
		<g
   id="g114">
			<path
   d="m 20.872,13.002 -9.027,9.026 c -0.44,0.442 -0.795,1.154 -0.795,1.593 v 8.954 h 9.822 c 0.44,0 0.798,-0.356 0.798,-0.797 V 13.002 c 0,-0.441 -0.358,-0.441 -0.798,0"
   id="path110"
   inkscape:connector-curvature="0"
   style="fill:#e2001a" />
			<rect
   x="11.05"
   y="12.671"
   width="10.621"
   height="19.903999"
   id="rect112"
   style="fill:none" />
		</g>
	</g>
	<path
   d="m 71.059,21.5 c 0,1.592 -0.229,3.067 -0.684,4.425 -0.457,1.358 -1.101,2.532 -1.93,3.519 -0.828,0.987 -1.836,1.756 -3.028,2.31 -1.189,0.551 -2.518,0.825 -3.982,0.825 h -5.323 c -0.233,0 -0.42,-0.072 -0.557,-0.22 -0.138,-0.149 -0.207,-0.34 -0.207,-0.573 V 12.139 c 0,-0.234 0.069,-0.425 0.207,-0.571 0.139,-0.15 0.324,-0.226 0.557,-0.226 h 5.292 c 1.443,0 2.761,0.245 3.948,0.734 1.192,0.487 2.207,1.177 3.044,2.069 0.84,0.893 1.493,1.959 1.959,3.203 0.471,1.239 0.704,2.624 0.704,4.152 m -3.863,0 c 0,-1.02 -0.127,-1.971 -0.382,-2.852 -0.256,-0.882 -0.633,-1.646 -1.133,-2.282 -0.498,-0.638 -1.102,-1.143 -1.802,-1.515 -0.702,-0.372 -1.5,-0.557 -2.393,-0.557 H 59.094 V 29.63 h 2.202 c 0.891,0 1.698,-0.201 2.423,-0.605 0.723,-0.404 1.345,-0.968 1.866,-1.689 0.52,-0.724 0.919,-1.58 1.195,-2.565 0.277,-0.992 0.416,-2.082 0.416,-3.271"
   id="path118"
   inkscape:connector-curvature="0"
   style="fill:#e2001a" />
	<path
   d="m 89.284,32.359 c -0.148,0.147 -0.337,0.22 -0.571,0.22 h -2.19 c -0.236,0 -0.42,-0.072 -0.555,-0.222 C 85.831,32.21 85.76,32.019 85.76,31.786 V 23.05 h -7.354 v 8.736 c 0,0.233 -0.073,0.424 -0.222,0.571 -0.146,0.149 -0.339,0.222 -0.571,0.222 h -2.191 c -0.232,0 -0.417,-0.072 -0.556,-0.22 -0.136,-0.149 -0.207,-0.34 -0.207,-0.573 V 12.139 c 0,-0.234 0.07,-0.425 0.207,-0.571 0.139,-0.15 0.323,-0.226 0.556,-0.226 h 2.191 c 0.231,0 0.424,0.076 0.571,0.226 0.148,0.146 0.222,0.337 0.222,0.571 v 7.796 h 7.354 v -7.796 c 0,-0.234 0.071,-0.425 0.208,-0.571 0.135,-0.15 0.319,-0.226 0.555,-0.226 h 2.19 c 0.234,0 0.423,0.076 0.571,0.226 0.147,0.146 0.224,0.337 0.224,0.571 v 19.646 c 0.001,0.234 -0.076,0.425 -0.224,0.574"
   id="path120"
   inkscape:connector-curvature="0"
   style="fill:#e2001a" />
	<path
   d="m 106.754,26.467 c 0,0.954 -0.192,1.813 -0.575,2.578 -0.381,0.765 -0.906,1.407 -1.577,1.93 -0.667,0.518 -1.448,0.916 -2.339,1.194 -0.891,0.274 -1.836,0.41 -2.833,0.41 h -4.874 c -0.149,0 -0.277,-0.053 -0.381,-0.156 -0.108,-0.106 -0.161,-0.234 -0.161,-0.382 V 11.854 c 0,-0.148 0.053,-0.271 0.161,-0.367 0.104,-0.096 0.232,-0.145 0.381,-0.145 h 5.258 c 0.831,0 1.631,0.108 2.407,0.318 0.775,0.213 1.456,0.539 2.041,0.972 0.586,0.435 1.05,0.987 1.401,1.657 0.352,0.666 0.527,1.456 0.527,2.37 0,0.572 -0.129,1.119 -0.384,1.64 -0.255,0.518 -0.576,0.986 -0.957,1.399 -0.384,0.415 -0.805,0.765 -1.262,1.049 -0.458,0.287 -0.9,0.496 -1.324,0.622 0.592,0.106 1.162,0.303 1.702,0.591 0.541,0.287 1.019,0.65 1.434,1.099 0.412,0.445 0.741,0.958 0.985,1.543 0.245,0.583 0.37,1.205 0.37,1.865 m -2.927,-9.717 c 0,-1.083 -0.373,-1.942 -1.117,-2.578 -0.746,-0.637 -1.712,-0.954 -2.902,-0.954 h -3.474 v 7.35 h 3.379 c 0.531,0 1.041,-0.093 1.531,-0.286 0.487,-0.191 0.922,-0.457 1.306,-0.796 0.382,-0.337 0.689,-0.741 0.926,-1.208 0.231,-0.466 0.351,-0.977 0.351,-1.528 m 0.514,9.625 c 0,-1.231 -0.42,-2.203 -1.258,-2.913 -0.841,-0.712 -1.931,-1.068 -3.271,-1.068 h -3.477 v 8.314 h 3.477 c 0.617,0 1.202,-0.106 1.754,-0.321 0.552,-0.211 1.038,-0.508 1.451,-0.891 0.415,-0.382 0.74,-0.838 0.972,-1.368 0.236,-0.531 0.352,-1.116 0.352,-1.753"
   id="path122"
   inkscape:connector-curvature="0"
   style="fill:#5c6971" />
	<path
   d="m 125.61,32.039 c -0.042,0.147 -0.117,0.277 -0.222,0.384 -0.107,0.104 -0.232,0.156 -0.384,0.156 h -1.592 c -0.147,0 -0.282,-0.053 -0.399,-0.156 -0.116,-0.106 -0.195,-0.236 -0.239,-0.384 l -3.521,-17.799 -3.459,17.799 c -0.041,0.147 -0.122,0.277 -0.238,0.384 -0.116,0.104 -0.251,0.156 -0.398,0.156 h -1.593 c -0.146,0 -0.28,-0.053 -0.396,-0.156 -0.119,-0.106 -0.198,-0.236 -0.241,-0.384 l -4.086,-20.187 c -0.042,-0.149 -0.016,-0.271 0.078,-0.366 0.098,-0.095 0.221,-0.143 0.369,-0.143 h 1.337 c 0.34,0 0.553,0.171 0.638,0.509 l 3.195,17.831 3.458,-17.831 c 0.084,-0.338 0.298,-0.509 0.637,-0.509 h 1.592 c 0.321,0 0.522,0.171 0.606,0.509 l 3.488,17.831 3.164,-17.831 c 0.086,-0.338 0.287,-0.509 0.606,-0.509 h 1.273 c 0.147,0 0.264,0.048 0.352,0.143 0.085,0.095 0.106,0.217 0.063,0.366 z"
   id="path124"
   inkscape:connector-curvature="0"
   style="fill:#5c6971" />
	<g
   id="g132">
		<g
   id="g130">
			<path
   d="M 20.872,11.331 H 1.221 c -0.44,0 -0.796,0.357 -0.796,0.797 v 19.65 c 0,0.44 0.356,0.797 0.796,0.797 h 9.829 v -8.954 c 0,-0.439 0.355,-1.151 0.795,-1.593 l 9.027,-9.026 c 0.44,-0.441 0.798,-0.441 0.798,0 v -0.874 c 0,-0.44 -0.358,-0.797 -0.798,-0.797"
   id="path126"
   inkscape:connector-curvature="0"
   style="fill:#e2001a" />
			<rect
   x="0.42500001"
   y="11.331"
   width="21.246"
   height="21.243999"
   id="rect128"
   style="fill:none" />
		</g>
	</g>
	<g
   id="g140">
		<g
   id="g138">
			<path
   d="m 24.318,11.331 h 9.826 V 0.516 c 0,-0.439 -0.36,-0.439 -0.798,0 l -9.028,9.03 c -0.44,0.44 -0.796,1.152 -0.796,1.593 v 0.988 c 0,-0.439 0.356,-0.796 0.796,-0.796"
   id="path134"
   inkscape:connector-curvature="0"
   style="fill:#e2001a" />
			<rect
   x="23.521"
   y="0.18700001"
   width="10.624"
   height="11.941"
   id="rect136"
   style="fill:none" />
		</g>
	</g>
	<g
   id="g148"
   style="opacity:0.8">
		<g
   id="g146">
			<path
   d="m 43.97,11.331 h -9.825 v 8.837 c 0,0.439 -0.361,1.154 -0.799,1.593 l -9.028,9.03 c -0.44,0.44 -0.796,0.44 -0.796,0 v 0.987 c 0,0.44 0.356,0.797 0.796,0.797 H 43.97 c 0.438,0 0.796,-0.356 0.796,-0.797 v -19.65 c 0,-0.44 -0.359,-0.797 -0.796,-0.797"
   id="path142"
   inkscape:connector-curvature="0"
   style="fill:#5c6971" />
			<rect
   x="23.521"
   y="11.331"
   width="21.245001"
   height="21.243999"
   id="rect144"
   style="fill:none" />
		</g>
	</g>
	<g
   id="g156"
   style="opacity:0.6">
		<g
   id="g154">
			<path
   d="m 24.318,30.791 9.028,-9.03 c 0.438,-0.439 0.798,-1.154 0.798,-1.593 v -8.837 h -9.826 c -0.44,0 -0.796,0.357 -0.796,0.797 v 18.663 c 0,0.44 0.356,0.44 0.796,0"
   id="path150"
   inkscape:connector-curvature="0"
   style="fill:#5c6971" />
			<rect
   x="23.521"
   y="11.331"
   width="10.624"
   height="19.790001"
   id="rect152"
   style="fill:none" />
		</g>
	</g>
	<g
   id="g164"
   style="opacity:0.8">
		<g
   id="g162">
			<path
   d="M 20.872,32.575 H 11.05 v 10.699 c 0,0.438 0.355,0.438 0.795,0 l 9.027,-9.029 c 0.44,-0.438 0.798,-1.152 0.798,-1.595 v -0.872 c 0,0.441 -0.358,0.797 -0.798,0.797"
   id="path158"
   inkscape:connector-curvature="0"
   style="fill:#5c6971" />
			<rect
   x="11.05"
   y="31.778"
   width="10.621"
   height="11.825"
   id="rect160"
   style="fill:none" />
		</g>
	</g>
	<g
   id="g172"
   style="opacity:0.6">
		<g
   id="g170">
			<path
   d="m 20.872,13.002 -9.027,9.026 c -0.44,0.442 -0.795,1.154 -0.795,1.593 v 8.954 h 9.822 c 0.44,0 0.798,-0.356 0.798,-0.797 V 13.002 c 0,-0.441 -0.358,-0.441 -0.798,0"
   id="path166"
   inkscape:connector-curvature="0"
   style="fill:#5c6971" />
			<rect
   x="11.05"
   y="12.671"
   width="10.621"
   height="19.903999"
   id="rect168"
   style="fill:none" />
		</g>
	</g>
	
</g>
</svg>